# xmcd
#
# Track frame offsets:
#	150
#	15862
#	28212
#	41461
#	57197
#	74223
#	86397
#	100902
#	119319
#	136098
#	154698
#	178329
#	195349
#
# Disc length: 2823 seconds
#
# Revision: 0
# Processed by: cddbd v1.4b42PL0 Copyright (c) Steve Scherf et al.
# Submitted via: EZCDDA 4.3.3.2
#
DISCID=a60b050d
DTITLE=Svenne and Lotta - The great collection cd 2
DYEAR=1900
DGENRE=
TTITLE0=Can´t stop myself
TTITLE1=Take good care of my baby
TTITLE2=I only wanna be with you
TTITLE3=It´s my party
TTITLE4=Tears on my pillow
TTITLE5=Speedy Gonzales
TTITLE6=Dream lover
TTITLE7=Love songs
TTITLE8=Bodytouch
TTITLE9=Love is
TTITLE10=Sandy party mix
TTITLE11=The two of us
TTITLE12=Tänk om jorden
EXTD=0\n\n\n
EXTT0=
EXTT1=
EXTT2=
EXTT3=
EXTT4=
EXTT5=
EXTT6=
EXTT7=
EXTT8=
EXTT9=
EXTT10=
EXTT11=
EXTT12=
PLAYORDER=
